<svg width="1280" height="844.99456" xmlns="http://www.w3.org/2000/svg">
 <title>new_ideas</title>

 <g>
  <title>background</title>
  <rect fill="none" id="canvas_background" height="846.99456" width="1282" y="-1" x="-1"/>
 </g>
 <g>
  <title>Layer 1</title>
  <path id="svg_1" fill="#0099ff" d="m1114.998722,270.31c0,35.17 -8.33,64.12 -22.7799,88.92a177.67758,177.67758 0 0 1 -16.19,23.25c-53.12,64.97 -151.88,100.53 -241.14,158.13c-263.48,170.02 -292.02,-102.42 -280.12,-270.3c4.8,-67.74 31.18,-129.79 73.09,-177.3a278.22062,278.22062 0 0 1 28.45,-27.97c47.58,-40.52 109.05,-65.04 178.58,-65.04c119.29,0 221.16,71.95 261.55,173.34a261.84957,261.84957 0 0 1 18.55993,96.97l-0.00003,0z"/>
  <path id="svg_2" fill="#d0cde1" d="m894.568832,60.91998l-266.71,32.09a278.22062,278.22062 0 0 1 28.45,-27.97l238.26,-4.12z"/>
  <path id="svg_3" fill="#d0cde1" d="m1092.218832,359.22998a177.67758,177.67758 0 0 1 -16.19,23.25l-228.46,-27.48l244.65,4.23z"/>
  <path id="svg_4" fill="#d0cde1" d="m1105.758732,201.21997l-387.18994,-50.22l377.87,22.34a260.439,260.439 0 0 1 9.31994,27.88z"/>
  <path id="svg_5" fill="#0099ff" d="m581.033362,72.00214c0,0.69 -0.02,1.37 -0.08,2.04a27.99706,27.99706 0 1 1 -52.68,-15.11a25.73956,25.73956 0 0 1 2.06,-3.31a27.9889,27.9889 0 0 1 50.6,14.1c0.06997,0.74997 0.1,1.50998 0.1,2.28z"/>
  <path id="svg_6" fill="#d0cde1" d="m581.033362,72.00214c0,0.69 -0.02,1.37 -0.08,2.04l-41.92,-5.04l41.9,0.72c0.06997,0.74997 0.1,1.50998 0.1,2.28z"/>
  <path id="svg_7" fill="#d0cde1" d="m571.033362,86.11212l-38.78,4.67a28.05694,28.05694 0 0 1 -2.96,-3.95l41.74,-0.72z"/>
  <path id="svg_8" fill="#d0cde1" d="m560.033362,55.11212l-31.76,3.82a25.73956,25.73956 0 0 1 2.06,-3.31l29.7,-0.51z"/>
  <path id="svg_9" fill="#0099ff" d="m964.766262,576.12783c-0.32346,0.60949 -0.65991,1.20075 -1.027,1.76443a27.99706,27.99706 0 1 1 -39.45,-38.042a25.73938,25.73938 0 0 1 3.37127,-1.9581a27.98891,27.98891 0 0 1 38.08621,36.17477c-0.28977,0.69535 -0.61952,1.38072 -0.98048,2.0609z"/>
  <path id="svg_10" fill="#d0cde1" d="m964.766262,576.12783c-0.32346,0.60949 -0.65991,1.20075 -1.027,1.76443l-34.66603,-24.10292l36.67354,20.27763c-0.2898,0.69531 -0.61955,1.38068 -0.98051,2.06086z"/>
  <path id="svg_11" fill="#d0cde1" d="m949.318682,583.90368l-36.44426,-14.054a28.05745,28.05745 0 0 1 -0.76292,-4.87668l37.20718,18.93068z"/>
  <path id="svg_12" fill="#d0cde1" d="m954.134192,551.36428l-29.8449,-11.514a25.73938,25.73938 0 0 1 3.37127,-1.9581l26.47363,13.4721z"/>
  <path id="svg_13" fill="#0099ff" d="m1163.078642,93.45254c0.48176,0.494 0.9422,0.99477 1.367,1.5163a27.99707,27.99707 0 1 1 -48.26355,25.96387a25.73851,25.73851 0 0 1 -0.83628,-3.80793a27.9889,27.9889 0 0 1 46.06931,-25.23471c0.57376,0.48809 1.1259,1.01121 1.66352,1.56247z"/>
  <path id="svg_14" fill="#d0cde1" d="m1163.078642,93.45254c0.48176,0.494 0.9422,0.99477 1.367,1.5163l-33.52955,25.66038l30.499,-28.73915c0.57379,0.48809 1.12593,1.01121 1.66355,1.56247z"/>
  <path id="svg_15" fill="#d0cde1" d="m1165.771202,110.53592l-24.50216,30.41946a28.0572,28.0572 0 0 1 -4.87694,-0.76118l29.3791,-29.65828z"/>
  <path id="svg_16" fill="#d0cde1" d="m1136.252082,96.02312l-20.07,24.90959a25.73851,25.73851 0 0 1 -0.83628,-3.80793l20.90628,-21.10166z"/>
  <path id="svg_17" fill="#a0616a" d="m637.780362,609.45319s61.44557,2.56024 61.44557,17.92163s-69.12627,0 -69.12627,0l7.6807,-17.92163z"/>
  <path id="svg_18" fill="#2f2e41" d="m545.612002,844.99456l-115.21045,-7.6807l-5.12047,-61.44558l-25.60232,53.76488l-112.65022,-15.3614c2.56023,-97.28882 43.524,-192.01741 46.08418,-204.81858s8.67923,-65.69564 8.67923,-65.69564c11.1882,-23.73325 69.81727,-25.96064 115.77362,-23.81013c19.04829,0.87055 35.94576,2.509 46.36577,3.68674c6.88688,0.768 10.95787,1.33137 10.95787,1.33137c18.35667,18.92015 30.18524,44.70155 37.45621,73.50417c26.21675,103.7663 -6.73342,246.52487 -6.73342,246.52487z"/>
  <circle id="svg_19" fill="#a0616a" r="64.005814" cy="187.01487" cx="417.60038"/>
  <path id="svg_20" fill="#a0616a" d="m374.076442,202.37628s-17.92161,79.36719 -46.08418,102.40928s110.09,0 110.09,0s-30.72278,-51.20465 -7.68069,-74.24674s-56.32513,-28.16254 -56.32513,-28.16254z"/>
  <path id="svg_21" fill="#d0cde1" d="m504.648282,530.08599l-42.47445,4.71074l-118.82018,13.21089s-0.56318,-1.51061 -1.5617,-4.25007c-8.628,-23.52854 -50.18049,-138.022 -54.76341,-172.406c-5.12046,-38.40349 48.64441,-84.48767 48.64441,-84.48767s51.20465,-10.24093 66.566,-10.24093s76.807,23.04209 76.807,23.04209l22.914,206.12433l1.97143,17.84474l0.7169,6.45188z"/>
  <path id="svg_22" opacity="0.15" d="m552.345422,598.4697l-86.10059,-50.46208s-1.51076,-4.91576 -4.071,-13.21089c-1.28011,-4.14756 -2.8415,-9.16551 -4.60823,-14.84931c-9.93371,-31.90055 -26.60085,-84.53892 -39.96518,-122.9935c-20.48186,-58.88534 79.36719,104.96952 79.36719,104.96952l4.99233,3.866l1.97143,17.84474c6.88688,0.768 10.95787,1.33137 10.95787,1.33137c18.35664,18.92013 30.18521,44.70153 37.45618,73.50415z"/>
  <path id="svg_23" fill="#d0cde1" d="m438.082242,304.78556s-25.60232,33.283 -5.12046,92.16836s48.64441,151.0537 48.64441,151.0537l148.49347,87.0479l20.48186,-25.60233l-138.25254,-107.52975s-5.12047,-194.57765 -30.72279,-202.25835s-43.52395,5.12047 -43.52395,5.12047z"/>
  <path id="svg_24" fill="#a0616a" d="m311.350752,528.80588s35.84325,74.24673 51.20464,66.566s-38.40348,-84.4876 -38.40348,-84.4876l-12.80116,17.9216z"/>
  <path id="svg_25" fill="#d0cde1" d="m307.510402,325.26741l-135.69231,112.65022s-51.20464,35.84326 43.524,61.44558s102.40924,40.96371 102.40924,40.96371s10.24093,-33.283 23.04209,-28.16255l-110.09,-53.76488l89.60813,-53.76488l-12.80115,-79.3672z"/>
  <path id="svg_26" fill="#2f2e41" d="m252.974322,239.54882c7.12167,-3.52691 22.84789,-10.64479 36.24333,-19.2202c-0.93932,-27.89762 2.49607,-53.22261 12.55222,-66.64662c5.64462,-12.81652 17.49793,-25.6481 26.7814,-35.75325c22.798,-24.81537 73.20958,-38.66708 82.15062,-26.26844c67.62534,1.33509 74.74468,54.34307 74.74468,54.34307c-0.3518,22.17187 -23.39557,22.87345 -43.58176,22.0655c1.80765,15.13647 -3.00971,30.86424 -16.95952,37.83915c-26.676,13.338 -34.67888,30.67741 -21.34081,42.68173s37.3465,44.01548 5.33523,52.01821s-36.01275,24.00854 -26.676,30.67752s-21.34096,-12.00421 -21.34096,-12.00421s-5.33512,32.01127 -33.345,24.00842c-2.51013,-0.71721 -5.01892,-2.55489 -7.48541,-5.30331c-7.56478,8.312 -14.31345,13.22658 -19.39967,13.25359c-29.13026,0.15447 -25.63705,-32.10971 -25.63705,-32.10971s-34.57609,9.71049 -23.7871,5.80578s11.25117,-20.39647 -17.4169,-36.73375s3.082,-40.69002 19.1627,-48.65348z"/>
  <path id="svg_27" fill="#3f3d56" d="m610.383832,323.1809l-0.46437,-0.06122l1.13287,4.30643a113.17562,113.17562 0 0 0 4.65,17.67685l33.22635,126.30782a21.40811,21.40811 0 0 0 17.43077,15.71007l67.75971,10.48261a21.408,21.408 0 0 0 22.1461,-11.05183l64.39386,-120.27626a113.00339,113.00339 0 0 0 5.50835,-10.28834l2.18627,-4.08367l-0.34094,-0.04495a113.84725,113.84725 0 1 0 -217.629,-28.67751l0.00003,0z"/>
  <path id="svg_28" fill="#d0cde1" d="m738.277532,505.85568a23.29759,23.29759 0 0 1 -3.56446,-0.27442l-70.82763,-10.958a23.3712,23.3712 0 0 1 -19.03418,-17.15528l-34.73043,-132.02588a119.05567,119.05567 0 0 1 -4.87793,-18.55615l-0.87842,-5.77588a120.02561,120.02561 0 0 1 137.39254,-133.86328l-0.30664,1.97656a118.0685,118.0685 0 0 0 -134.93116,132.9126l0.6753,4.32031a118.2809,118.2809 0 0 0 4.83691,18.39991l34.7544,132.103a21.36975,21.36975 0 0 0 17.40527,15.6875l70.82764,10.958a21.407,21.407 0 0 0 22.11425,-11.03613l1.76368,0.94336a23.42072,23.42072 0 0 1 -20.61914,12.34378z"/>
  <rect id="svg_29" fill="#d0cde1" transform="rotate(-69.8849868774414 93.09777832031243,890.7514038085938) " height="2.58676" width="125.31395" y="1328.131074" x="701.836288"/>
  <rect id="svg_30" fill="#d0cde1" transform="rotate(-2.5158300399780273 46.18923950195312,0.25189000368117265) " height="125.31395" width="2.58676" y="368.75338" x="667.717"/>
  <path id="svg_31" fill="#3f3d56" d="m732.289902,565.71076l-90.75733,-14.04041a2.587,2.587 0 0 1 0.791,-5.11309l90.75733,14.04041a2.587,2.587 0 1 1 -0.791,5.11309z"/>
  <path id="svg_32" fill="#3f3d56" d="m734.617052,546.4378l-90.75733,-14.04041a2.587,2.587 0 1 1 0.791,-5.11309l90.75734,14.04041a2.587,2.587 0 1 1 -0.791,5.11309l-0.00001,0z"/>
  <path id="svg_33" fill="#3f3d56" d="m736.944202,527.16484l-90.75737,-14.04041a2.587,2.587 0 0 1 0.791,-5.11309l90.75733,14.04041a2.587,2.587 0 0 1 -0.791,5.11309l0.00004,0z"/>
  <path id="svg_34" fill="#3f3d56" d="m684.090182,576.92591c18.00222,2.785 34.1481,-4.99048 36.06278,-17.367l-65.19188,-10.08536c-1.91469,12.37651 11.12687,24.66737 29.1291,27.45236z"/>
  <path id="svg_35" fill="#d0cde1" d="m716.713622,327.09949c-3.87236,-0.59843 -7.07617,-3.65939 -8.83264,-5.711c-0.57595,-0.67259 -1.1365,-1.37029 -1.69874,-2.06952c-2.04551,-2.54625 -3.97681,-4.95084 -6.66642,-6.20478c-5.93686,-2.76991 -12.93209,1.099 -18.98864,5.24984l-1.46325,-2.13343c6.65876,-4.56514 14.42362,-8.78213 21.54579,-5.46138c3.23493,1.50894 5.44871,4.26464 7.58906,6.92909c0.545,0.67867 1.089,1.35527 1.64693,2.00782c1.82636,2.13272 5.46883,5.58876 9.37174,4.79166a12.5979,12.5979 0 0 0 4.49545,-2.37986a24.07683,24.07683 0 0 1 3.18135,-2.00734a12.66906,12.66906 0 0 1 13.90684,1.96545a25.02449,25.02449 0 0 1 1.88717,1.99578c1.16372,1.32656 2.26229,2.5785 3.69247,3.03366c2.11435,0.676 4.349,-0.53253 6.71686,-1.80932c2.442,-1.31774 4.96637,-2.68088 7.8299,-2.34462c0.09286,0.01117 0.18677,0.02378 0.27915,0.03807c5.09561,0.78831 7.44484,6.42363 8.77412,10.62937l-2.46725,0.7789c-1.80618,-5.71683 -4.00582,-8.55982 -6.889,-8.87675c-2.05123,-0.24128 -4.114,0.87246 -6.298,2.05116c-2.7378,1.4784 -5.57148,3.00651 -8.7311,1.99813c-2.11483,-0.67292 -3.5069,-2.2585 -4.852,-3.79208a22.79725,22.79725 0 0 0 -1.68845,-1.79311a10.16528,10.16528 0 0 0 -11.01236,-1.55665a21.837,21.837 0 0 0 -2.83631,1.80124a14.69665,14.69665 0 0 1 -5.46961,2.80242a8.504,8.504 0 0 1 -3.02306,0.06725z"/>
 </g>
</svg>