<svg width="512" height="320" xmlns="http://www.w3.org/2000/svg">

 <g>
  <title>background</title>
  <rect fill="none" id="canvas_background" height="322" width="514" y="-1" x="-1"/>
 </g>
 <g>
  <title>Layer 1</title>
  <path transform="rotate(0.1391659677028656 673.5666503906214,128.98112487795322) " stroke="null" id="svg_1" d="m-139.00002,-73.914638l54.018812,27.085246c41.006694,22.625491 107.02257,67.13508 215.060182,74.383247c108.037623,6.739524 390.091724,-27.37459 498.129336,-34.114114c108.037612,-7.248168 97.092577,28.016234 205.130189,47.980484c108.037612,20.727216 496.855123,-203.562846 502.0875,-78.106511c5.232378,125.456335 96.6885,-11.17392 150.707312,-3.925753l-4.569129,170.15472l0,203.457319l-54.0188,0c-54.018812,0 -162.056424,0 -270.094036,0c-108.037612,0 -216.075235,0 -324.112847,0c-108.037612,0 -216.075224,0 -324.112836,0c-108.037612,0 -216.075224,0 -324.112847,0c-108.037612,0 -216.075224,0 -270.094024,0l-54.018812,0l0,-406.914638z" fill="#0099ff"/>
 </g>
</svg>