<!DOCTYPE svg PUBLIC "-//W3C//DTD SVG 20010904//EN" "http://www.w3.org/TR/2001/REC-SVG-20010904/DTD/svg10.dtd">
<svg version="1.0" xmlns="http://www.w3.org/2000/svg" width="600px" height="300px" viewBox="0 0 6000 3000" preserveAspectRatio="xMidYMid meet">
<g id="layer101" fill="#0099ff" stroke="none">
 <path d="M237 2343 c-14 -13 -6 -23 18 -23 22 0 24 -3 15 -19 -7 -13 -10 -307 -10 -883 0 -765 2 -866 16 -886 l15 -22 600 0 599 0 0 174 c0 149 -2 175 -16 180 -9 3 -198 6 -420 6 l-404 0 0 195 0 195 323 0 c301 0 325 1 340 18 14 15 17 42 17 160 0 198 32 182 -366 182 l-314 0 -2 348 -3 347 -50 6 c-27 3 -42 7 -32 7 10 1 15 7 12 12 -7 11 -327 14 -338 3z"/>
 <path d="M1970 2316 c-72 -15 -165 -62 -196 -99 -58 -69 -63 -93 -74 -309 -12 -266 -19 -304 -66 -345 -33 -29 -102 -53 -153 -53 -34 0 -42 -24 -39 -112 l3 -83 57 -7 c67 -8 131 -39 153 -71 24 -38 36 -121 45 -322 11 -252 25 -289 138 -366 43 -29 43 -29 196 -29 84 0 174 3 200 6 l46 7 0 67 c0 42 -5 71 -12 77 -7 6 -55 13 -107 16 -139 7 -134 -3 -146 265 -6 119 -15 226 -19 237 -25 62 -47 94 -99 146 -33 32 -72 61 -88 64 -16 4 -29 10 -29 13 1 4 23 17 50 30 59 28 101 69 142 142 35 62 45 137 48 372 3 172 4 173 141 181 69 3 104 10 110 19 10 15 12 129 3 152 -5 13 -26 16 -128 15 -66 0 -146 -6 -176 -13z"/>
 <path d="M2533 2323 l-33 -4 0 -90 0 -89 78 0 c114 0 149 -12 163 -58 6 -20 13 -113 15 -206 2 -93 6 -172 9 -174 3 -3 5 -14 5 -24 0 -10 4 -26 9 -36 5 -9 15 -32 22 -51 22 -58 82 -125 138 -151 28 -14 51 -28 51 -31 0 -4 -11 -10 -25 -13 -45 -11 -153 -117 -162 -158 -3 -16 -9 -28 -13 -28 -16 0 -31 -117 -36 -280 -3 -96 -10 -187 -16 -203 -12 -31 -21 -34 -136 -41 -46 -3 -87 -8 -93 -11 -5 -4 -9 -40 -9 -82 l0 -75 193 4 192 3 45 30 c118 77 141 134 145 361 1 61 5 116 9 122 3 5 5 34 5 64 -2 59 4 87 28 134 23 44 61 64 151 77 l77 12 3 83 c2 50 -2 89 -8 97 -6 7 -36 16 -68 20 -64 8 -116 31 -150 68 -27 29 -40 132 -42 334 -1 67 -5 125 -9 127 -4 3 -8 18 -9 34 -2 82 -60 160 -153 206 l-72 36 -136 -2 c-75 0 -151 -3 -168 -5z"/>
 <path d="M3750 2312 c0 -5 -35 -14 -78 -20 -109 -17 -233 -57 -324 -104 -74 -38 -78 -42 -78 -74 0 -38 12 -69 55 -139 16 -28 39 -67 49 -88 26 -50 51 -54 130 -23 232 92 267 100 401 100 116 -1 168 -17 221 -67 29 -27 37 -43 43 -90 6 -46 4 -62 -9 -82 -18 -27 -81 -75 -99 -75 -6 0 -11 -4 -11 -9 0 -12 -92 -45 -234 -85 -215 -61 -362 -147 -446 -261 -68 -92 -80 -133 -81 -267 0 -100 22 -228 40 -228 3 0 12 -12 18 -28 7 -15 37 -54 67 -88 62 -69 155 -123 257 -151 75 -20 288 -29 339 -14 19 5 82 19 140 31 117 25 293 84 321 108 28 24 23 63 -20 154 -22 46 -46 100 -54 120 -22 54 -48 56 -148 15 -212 -87 -392 -108 -504 -58 -48 21 -75 61 -77 114 -3 74 49 121 187 172 39 14 78 30 89 36 10 6 65 26 121 45 153 50 231 89 322 157 143 108 189 205 181 387 -4 98 -7 113 -43 189 -67 142 -206 253 -370 296 -32 8 -67 15 -77 15 -10 0 -18 5 -18 10 0 6 -58 10 -155 10 -85 0 -155 -4 -155 -8z"/>
 <path d="M5070 2310 c-8 -5 -56 -16 -107 -24 -112 -20 -238 -62 -318 -108 -74 -42 -82 -72 -38 -140 15 -23 44 -74 63 -113 47 -95 59 -98 181 -51 52 20 101 41 109 45 74 40 315 60 395 32 61 -21 123 -77 135 -121 32 -117 -60 -190 -342 -271 -212 -61 -379 -152 -450 -246 -105 -138 -125 -308 -58 -481 57 -148 171 -246 345 -298 98 -30 298 -26 457 8 158 35 314 90 348 123 l25 25 -24 68 c-32 91 -79 187 -102 208 -17 15 -24 16 -62 5 -23 -7 -71 -26 -107 -41 -36 -16 -112 -38 -170 -50 -222 -46 -365 3 -365 125 0 76 51 122 191 171 43 15 84 31 90 36 7 5 63 26 125 47 156 53 199 73 286 133 87 60 128 105 174 191 34 61 34 63 34 192 l0 130 -45 88 c-37 74 -57 100 -121 158 -42 38 -101 80 -130 94 -56 25 -160 55 -191 55 -10 0 -18 5 -18 10 0 13 -289 13 -310 0z"/>
 <path d="M1380 1450 c0 -20 5 -30 15 -30 10 0 15 10 15 30 0 20 -5 30 -15 30 -10 0 -15 -10 -15 -30z"/>
 </g>

</svg>