<svg xmlns="http://www.w3.org/2000/svg" width="512" height="320"><g><title>background</title><rect id="canvas_background" width="514" height="322" x="-1" y="-1" fill="none"/></g><g><title>Layer 1</title><path id="svg_1" fill="#09f" stroke="null" d="m-148.00002,-67.91464l54.01881,27.08525c41.0067,22.62549 107.02257,67.13508 215.06018,74.38324c108.03763,6.73953 390.09173,-27.37459 498.12934,-34.11411c108.03761,-7.24817 97.09258,28.01623 205.13019,47.98048c108.03761,20.72722 496.85512,-203.56284 502.0875,-78.10651c5.23238,125.45634 96.6885,-11.17392 150.70731,-3.92575l-4.56913,170.15472l0,203.45732l-54.0188,0c-54.01881,0 -162.05642,0 -270.09403,0c-108.03762,0 -216.07524,0 -324.11285,0c-108.03761,0 -216.07522,0 -324.11284,0c-108.03761,0 -216.07522,0 -324.11284,0c-108.03762,0 -216.07523,0 -270.09403,0l-54.01881,0l0,-406.91464z" transform="rotate(0.1391659677028656 664.5666503906402,134.9811401367115)"/></g></svg>